<svg id="Capa_1" data-name="Capa 1" xmlns="http://www.w3.org/2000/svg" viewBox="0 0 30.56 18.2"><defs><style>.cls-1{fill:#16c5b4;}.cls-2{fill:#012027;}.cls-3{fill:none;}</style></defs><path class="cls-1" d="M14.73,6.82a1.75,1.75,0,0,0-2.54-.14,2.34,2.34,0,0,0-.84,2v.4A3.41,3.41,0,0,0,12,11a8.41,8.41,0,0,0,1,1.2c.73.67,1.57,1.6,2.42,2.4V7.35Z" transform="translate(-0.02 -6.2)"/><path class="cls-2" d="M15.33,14.55l1.57-1.69,1.33-1.42a5.14,5.14,0,0,0,1-2.21V8.06a2.08,2.08,0,0,0-2.41-1.82c-.12,0-.36.13-.49.13a1.88,1.88,0,0,0-1,1" transform="translate(-0.02 -6.2)"/><path class="cls-2" d="M11.32,17.46A1,1,0,0,0,9.91,17c-.45.33-1.8.89-1.91,1s-.34,0-.34-.34v-6a.85.85,0,0,0-.78-.89.76.76,0,0,0-.79.78V16a1.22,1.22,0,0,1-.9,1.24,1.3,1.3,0,0,1-.9-.11,1,1,0,0,1-.78.67,1.11,1.11,0,0,1-1-.22,1.59,1.59,0,0,1-1.12.78A1.15,1.15,0,0,1,.25,17.1c0-.68-.23,1.46-.23,1.8v.45c0,.67.27,1.9.68,2.13v2.36a.52.52,0,0,0,.56.56H6.54a.6.6,0,0,0,.56-.56V22c-.11-.11.79-1.23,1.13-1.68a3.31,3.31,0,0,1,.89-.9l1.69-1A.92.92,0,0,0,11.32,17.46Zm-4.78,1.1a9.2,9.2,0,0,0-1.12.67,2.11,2.11,0,0,0-.9,1.69s-.12.34-.23.22a.24.24,0,0,1-.22-.22,3.8,3.8,0,0,1,.67-1.57,3.93,3.93,0,0,1,1.8-1.24c.22,0,.11,0,.22.11S6.76,18.33,6.54,18.56Z" transform="translate(-0.02 -6.2)"/><path class="cls-2" d="M2.49,17.43a.85.85,0,0,0,1,.12A1.1,1.1,0,0,0,4,16.42s-.37-1.91-.45-2.13c-.11-.39-.45-.9-.9-.79H2.49a.91.91,0,0,0-.67,1.13Z" transform="translate(-0.02 -6.2)"/><path class="cls-2" d="M4.52,17c.56.44,1.12-.12,1.12-.9v-1.8a.87.87,0,0,0-.79-.9.86.86,0,0,0-.78.9l.22,1.91C4.29,16.42,4.4,17,4.52,17Z" transform="translate(-0.02 -6.2)"/><path class="cls-2" d="M1,18.17s.42.16.53,0a1,1,0,0,0,.68-1.12C2.08,16.54,2,16,1.85,15.3c-.11-.45-.34-.79-.79-.79S.17,15,.28,15.75s.22,1.12.34,1.8A1,1,0,0,0,1,18.17Z" transform="translate(-0.02 -6.2)"/><path class="cls-3" d="M24.06,18.11a4.6,4.6,0,0,1,1.8,1.24,3.8,3.8,0,0,1,.67,1.57.24.24,0,0,1-.22.22c-.11.12-.23-.22-.23-.22a3.07,3.07,0,0,0-.9-1.69,3,3,0,0,0-1.12-.67c-.22-.23-.22-.23-.11-.23C24,18.11,23.84,18.11,24.06,18.11Z" transform="translate(-0.02 -6.2)"/><path class="cls-1" d="M19.79,18.45l1.69,1a3.31,3.31,0,0,1,.89.9c.45.45,1.24,1.57,1.13,1.68v1.8a.52.52,0,0,0,.56.56h5.28a.6.6,0,0,0,.56-.56V21.48a.38.38,0,0,0,.12-.22,3.89,3.89,0,0,0,.56-1.91V18.9c0-.45-.23-2.59-.23-1.8h0a1.22,1.22,0,0,1-1.12,1.23,2,2,0,0,1-1.12-.78,1.73,1.73,0,0,1-1,.22,1.19,1.19,0,0,1-.78-.67A1.22,1.22,0,0,1,24.51,16V11.59a.76.76,0,0,0-.79-.78h0a.78.78,0,0,0-.78.89v6c0,.34-.12.45-.34.34a8.15,8.15,0,0,1-1.91-1h0c-.45-.23-1.12-.22-1.35.23A.94.94,0,0,0,19.79,18.45Zm4.05-.23c.11-.11,0-.11.22-.11a4.6,4.6,0,0,1,1.8,1.24,3.8,3.8,0,0,1,.67,1.57.24.24,0,0,1-.22.22c-.11.12-.23-.22-.23-.22a3.07,3.07,0,0,0-.9-1.69,3,3,0,0,0-1.12-.67C23.72,18.33,23.72,18.33,23.84,18.22Z" transform="translate(-0.02 -6.2)"/><path class="cls-1" d="M28,17.35a.91.91,0,0,1-1,.2,1.08,1.08,0,0,1-.45-1.13s.35-2,.45-2.13c.22-.54.41-.81.9-.79H28a1.07,1.07,0,0,1,.68,1.24Z" transform="translate(-0.02 -6.2)"/><path class="cls-1" d="M26.2,16.31S26.08,17,26,17c-.56.44-1.12-.12-1.12-.9v-1.8a.79.79,0,1,1,1.57,0" transform="translate(-0.02 -6.2)"/><path class="cls-1" d="M29.45,18.05c-.11,0-.21,0-.33,0a.9.9,0,0,1-.57-1.09c.12-.56.23-1.24.34-1.91.11-.45.34-.79.79-.79s.9.45.79,1.24-.23,1.23-.34,1.91C30.13,17.6,29.79,17.94,29.45,18.05Z" transform="translate(-0.02 -6.2)"/></svg>