<?xml version="1.0" encoding="utf-8"?>
<!-- Generator: Adobe Illustrator 25.0.0, SVG Export Plug-In . SVG Version: 6.00 Build 0)  -->
<svg version="1.1" id="Capa_1" xmlns="http://www.w3.org/2000/svg" xmlns:xlink="http://www.w3.org/1999/xlink" x="0px" y="0px"
	 viewBox="0 0 30.6 30.6" style="enable-background:new 0 0 30.6 30.6;" xml:space="preserve">
<style type="text/css">
	.st0{display:none;fill:#F5F5F5;}
	.st1{fill:#16C5B4;}
	.st2{fill:#012027;}
	.st3{fill:none;}
	.st4{display:none;}
	.st5{display:inline;}
	.st6{fill:none;stroke:#606060;stroke-width:6.000000e-02;stroke-linecap:round;stroke-linejoin:round;stroke-miterlimit:10;}
</style>
<path class="st0" d="M15.3,30.6L15.3,30.6C6.9,30.6,0,23.7,0,15.3l0,0C0,6.9,6.8,0,15.2,0h0.1l0,0c8.4,0,15.3,6.9,15.3,15.3l0,0
	C30.6,23.7,23.7,30.6,15.3,30.6z"/>
<g>
	<g>
		<path class="st1" d="M14.7,6.8C14,6,12.9,6,12.2,6.7c-0.6,0.4-0.8,1.2-0.8,2v0.4c0,0.7,0.2,1.3,0.6,1.9c0.2,0.4,0.6,0.8,1,1.2
			c0.7,0.7,1.6,1.6,2.4,2.4V7.3L14.7,6.8z"/>
		<path class="st2" d="M15.3,14.6c0,0,1.1-1.2,1.6-1.7c0.5-0.5,1-1,1.3-1.4c0.5-0.6,0.8-1.4,1-2.2V8.1C19,6.9,18,6,16.8,6.2
			c-0.1,0-0.4,0.1-0.5,0.1c-0.5,0.3-0.7,0.4-1,1"/>
	</g>
	<g>
		<path class="st2" d="M11.3,17.5c-0.3-0.5-0.7-0.7-1.4-0.5c-0.4,0.3-1.8,0.9-1.9,1c-0.2,0.1-0.3,0-0.3-0.3v-6
			c0-0.4-0.3-0.9-0.8-0.9c-0.4,0-0.8,0.3-0.8,0.8v0.1V16c0,0.6-0.3,1.1-0.9,1.2c-0.3,0.1-0.6,0-0.9-0.1c-0.1,0.3-0.4,0.7-0.8,0.7
			c-0.3,0.1-0.8,0-1-0.2c-0.2,0.4-0.7,0.7-1.1,0.8c-0.7,0-1.1-0.6-1.1-1.2S0,18.6,0,18.9v0.4c0,0.7,0.3,1.9,0.7,2.1v2.4
			c0,0.3,0.2,0.6,0.6,0.6c0,0,0,0,0.1,0h5.2c0.3,0,0.6-0.3,0.6-0.6V22c-0.1-0.1,0.8-1.2,1.1-1.7c0.2-0.3,0.6-0.7,0.9-0.9
			c0.6-0.3,1.1-0.7,1.7-1C11.1,18.3,11.4,17.8,11.3,17.5z M6.5,18.6c-0.4,0.2-0.8,0.4-1.1,0.7c-0.6,0.4-0.9,1-0.9,1.7
			c0,0-0.1,0.3-0.2,0.2c-0.1,0-0.2-0.1-0.2-0.2c0.1-0.6,0.3-1.1,0.7-1.6c0.4-0.6,1.1-1,1.8-1.2c0.2,0,0.1,0,0.2,0.1
			C6.9,18.3,6.8,18.3,6.5,18.6z"/>
		<path class="st2" d="M2.5,17.4c0.2,0.2,0.7,0.3,1,0.1c0.3-0.2,0.6-0.7,0.4-1.1c0,0-0.4-1.9-0.4-2.1c-0.1-0.4-0.4-0.9-0.9-0.8
			c0,0,0,0-0.1,0c-0.6,0.1-0.8,0.7-0.7,1.1L2.5,17.4z"/>
		<path class="st2" d="M4.5,17c0.6,0.4,1.1-0.1,1.1-0.9v-0.9v-0.9c0-0.4-0.3-0.9-0.8-0.9c-0.4,0-0.8,0.4-0.8,0.9l0.2,1.9
			C4.3,16.4,4.4,17,4.5,17z"/>
		<path class="st2" d="M1,18.2c0,0,0.4,0.2,0.5,0.1c0.4-0.1,0.8-0.7,0.7-1.1C2.1,16.5,2,16,1.9,15.3c-0.1-0.4-0.3-0.8-0.8-0.8
			c-0.4,0-0.9,0.4-0.8,1.2c0.1,0.7,0.2,1.1,0.3,1.8C0.6,17.9,1,18.2,1,18.2z"/>
	</g>
	<g>
		<path class="st3" d="M24.1,18.1c0.7,0.2,1.2,0.7,1.8,1.2c0.3,0.4,0.6,1,0.7,1.6c0,0.1-0.1,0.2-0.2,0.2c-0.1,0.1-0.2-0.2-0.2-0.2
			c-0.1-0.7-0.4-1.2-0.9-1.7c-0.3-0.3-0.8-0.6-1.1-0.7c-0.2-0.2-0.2-0.2-0.1-0.2C23.9,18.1,23.8,18.1,24.1,18.1z"/>
		<path class="st1" d="M19.8,18.4c0.6,0.3,1.1,0.7,1.7,1c0.3,0.2,0.7,0.6,0.9,0.9c0.4,0.4,1.2,1.6,1.1,1.7v1.8
			c0,0.3,0.2,0.6,0.6,0.6h5.2c0,0,0,0,0.1,0c0.3,0,0.6-0.3,0.6-0.6v-2.4c0,0,0.1-0.1,0.1-0.2c0.3-0.6,0.6-1.2,0.6-1.9v-0.4
			c0-0.4-0.2-2.6-0.2-1.8l0,0c0,0.7-0.4,1.1-1.1,1.2c-0.4-0.1-0.9-0.4-1.1-0.8c-0.3,0.2-0.7,0.2-1,0.2c-0.3-0.1-0.7-0.3-0.8-0.7
			c-0.2,0.1-0.6,0.2-0.9,0.1c-0.6-0.1-0.9-0.7-0.9-1.2v-4.3v-0.1c0-0.4-0.3-0.8-0.8-0.8l0,0c-0.4,0-0.9,0.4-0.8,0.9v6
			c0,0.3-0.1,0.4-0.3,0.3c-0.2,0-1.5-0.7-1.9-1l0,0c-0.4-0.2-1.1-0.2-1.3,0.2C19.1,17.6,19.3,18.3,19.8,18.4z M23.8,18.2
			c0.1-0.1,0-0.1,0.2-0.1c0.7,0.2,1.2,0.7,1.8,1.2c0.3,0.4,0.6,1,0.7,1.6c0,0.1-0.1,0.2-0.2,0.2c-0.1,0.1-0.2-0.2-0.2-0.2
			c-0.1-0.7-0.4-1.2-0.9-1.7c-0.3-0.3-0.8-0.6-1.1-0.7C23.7,18.3,23.7,18.3,23.8,18.2z"/>
		<path class="st1" d="M28,17.3c-0.2,0.2-0.7,0.4-1,0.2c-0.3-0.2-0.6-0.7-0.4-1.1c0,0,0.3-1.9,0.4-2.1c0.2-0.5,0.4-0.8,0.9-0.8
			c0,0,0,0,0.1,0c0.4,0.1,0.8,0.7,0.7,1.2L28,17.3z"/>
		<path class="st1" d="M26.2,16.3c0,0-0.1,0.7-0.2,0.7c-0.6,0.4-1.1-0.1-1.1-0.9v-0.9v-0.9c0-0.4,0.3-0.9,0.8-0.9s0.8,0.4,0.8,0.9"
			/>
		<path class="st1" d="M29.5,18.1c-0.1,0-0.2,0-0.3,0c-0.4-0.1-0.7-0.6-0.6-1.1c0.1-0.6,0.2-1.2,0.3-1.9c0.1-0.4,0.3-0.8,0.8-0.8
			c0.4,0,0.9,0.4,0.8,1.2c-0.1,0.7-0.2,1.2-0.3,1.9C30.1,17.6,29.8,17.9,29.5,18.1z"/>
	</g>
</g>
<g id="Capa_2_1_" class="st4">
	<g class="st5">
		<line class="st6" x1="0" y1="-0.1" x2="0" y2="30.5"/>
		<line class="st6" x1="2.3" y1="-0.1" x2="2.3" y2="30.5"/>
		<line class="st6" x1="4.6" y1="-0.1" x2="4.6" y2="30.5"/>
		<line class="st6" x1="7" y1="-0.1" x2="7" y2="30.5"/>
		<line class="st6" x1="9.3" y1="-0.1" x2="9.3" y2="30.5"/>
		<line class="st6" x1="11.6" y1="-0.1" x2="11.6" y2="30.5"/>
		<line class="st6" x1="14" y1="-0.1" x2="14" y2="30.5"/>
		<line class="st6" x1="16.3" y1="-0.1" x2="16.3" y2="30.5"/>
		<line class="st6" x1="18.6" y1="-0.1" x2="18.6" y2="30.5"/>
		<line class="st6" x1="21" y1="-0.1" x2="21" y2="30.5"/>
		<line class="st6" x1="23.3" y1="-0.1" x2="23.3" y2="30.5"/>
		<line class="st6" x1="25.7" y1="0" x2="25.7" y2="30.6"/>
		<line class="st6" x1="28.2" y1="0.1" x2="28.2" y2="30.7"/>
		<line class="st6" x1="30.6" y1="0.2" x2="30.6" y2="30.8"/>
	</g>
	<g class="st5">
		<line class="st6" x1="-0.1" y1="30.5" x2="30.5" y2="30.5"/>
		<line class="st6" x1="-0.1" y1="28.2" x2="30.5" y2="28.2"/>
		<line class="st6" x1="-0.1" y1="25.9" x2="30.5" y2="25.9"/>
		<line class="st6" x1="-0.1" y1="23.6" x2="30.5" y2="23.6"/>
		<line class="st6" x1="-0.1" y1="21.3" x2="30.5" y2="21.3"/>
		<line class="st6" x1="-0.1" y1="19" x2="30.5" y2="19"/>
		<line class="st6" x1="-0.1" y1="16.6" x2="30.5" y2="16.6"/>
		<line class="st6" x1="-0.1" y1="14.3" x2="30.5" y2="14.3"/>
		<line class="st6" x1="-0.1" y1="12" x2="30.5" y2="12"/>
		<line class="st6" x1="-0.1" y1="9.7" x2="30.5" y2="9.7"/>
		<line class="st6" x1="-0.1" y1="7.4" x2="30.5" y2="7.4"/>
		<line class="st6" x1="0" y1="5" x2="30.6" y2="5"/>
		<line class="st6" x1="0" y1="2.5" x2="30.6" y2="2.5"/>
		<line class="st6" x1="0.1" y1="0.1" x2="30.7" y2="0.1"/>
	</g>
</g>
</svg>
